# xmcd
#
# Track frame offsets:
#	150
#	19031
#	37642
#	50992
#	66735
#	78050
#	97174
#	113686
#	135882
#	151276
#	170463
#	186975
#	203389
#	217217
#	230383
#	249431
#	271139
#	286347
#
# Disc length: 4026
#
# Revision: 2
# Processed by: cddbd v1.5.1PL0 Copyright (c) Steve Scherf et al.
# Submitted via: audiograbber 1.82.02
# Normalized: r0:DSETVAR1,TSWAP
#
DISCID=f50fb812
DTITLE=Various Artist - Country 2001
DYEAR=1900
DGENRE=Country 2001
TTITLE0=Keith Urban - Your Everything
TTITLE1=Kenny Chesney - She Thinks My Tractor Is Sexy
TTITLE2=Joe Diffie - It's Always Something
TTITLE3=Lonestar - What About Now
TTITLE4=John Conley - Busted
TTITLE5=Judds - Grandpa (Tell Me 'bout the Good Old Days)
TTITLE6=Collin Raye - Couldn't Last A Moment
TTITLE7=Leann Womack - I Hope You Dance
TTITLE8=Tim Mcgraw - I Like It I, I Love It
TTITLE9=Vince Gill - Feels Like Love
TTITLE10=Collin Raye - Couldn't Last A Moment
TTITLE11=Diamond Rio - One More Day With You
TTITLE12=Dixie Chicks - If I Fall You're Going Down With Me
TTITLE13=Arron Tippin - Kiss This
TTITLE14=Lonestar - I'm Already There
TTITLE15=Sara Evans - I Could Not Ask For More
TTITLE16=Kenny Chesney - Don't Happen Twice
TTITLE17=Toby Keith - How Do You Like Me Now
EXTD=
EXTT0=
EXTT1=
EXTT2=
EXTT3=
EXTT4=
EXTT5=
EXTT6=
EXTT7=
EXTT8=
EXTT9=
EXTT10=
EXTT11=
EXTT12=
EXTT13=
EXTT14=
EXTT15=
EXTT16=
EXTT17=
PLAYORDER=
